<svg width="1505" height="441" viewBox="0 0 1505 441" fill="none" xmlns="http://www.w3.org/2000/svg">
<g clip-path="url(#clip0_115_218)">
<path d="M289.344 186.707V31.2523C289.342 28.2685 288.156 25.4074 286.046 23.2976C283.937 21.1878 281.075 20.0017 278.092 20H224.518V234.243C224.52 236.149 225.086 238.013 226.146 239.597C227.206 241.182 228.712 242.416 230.473 243.146C232.234 243.875 234.172 244.066 236.042 243.695C237.912 243.323 239.63 242.406 240.978 241.059L285.107 196.937C286.45 195.594 287.516 193.999 288.243 192.244C288.97 190.488 289.344 188.607 289.344 186.707Z" fill="#FF0036"/>
<path d="M224.518 20H122.637C120.737 19.9996 118.856 20.3737 117.1 21.1007C115.345 21.8278 113.75 22.8936 112.407 24.2373L68.2852 68.3654C66.9377 69.7146 66.0203 71.433 65.6491 73.3034C65.2779 75.1738 65.4694 77.1123 66.1995 78.8738C66.9295 80.6354 68.1654 82.141 69.7509 83.2004C71.3364 84.2598 73.2004 84.8255 75.1073 84.8259H224.518V20Z" fill="#FFC900"/>
<path d="M166.701 309.344H11.2523C9.77436 309.345 8.31078 309.054 6.94521 308.489C5.57965 307.924 4.33887 307.095 3.29383 306.05C2.24879 305.005 1.41999 303.764 0.854812 302.399C0.289632 301.033 -0.000843403 299.57 1.83935e-06 298.092V244.518H214.237C216.145 244.517 218.01 245.082 219.597 246.142C221.184 247.202 222.421 248.708 223.151 250.471C223.882 252.234 224.073 254.174 223.7 256.046C223.328 257.917 222.409 259.636 221.059 260.985L176.931 305.107C175.587 306.45 173.993 307.516 172.237 308.243C170.482 308.97 168.601 309.344 166.701 309.344Z" fill="#1904DA"/>
<path d="M2.68912e-07 244.518V142.643C-0.000366119 140.743 0.373669 138.862 1.10072 137.107C1.82778 135.351 2.8936 133.757 4.23728 132.413L48.359 88.2852C49.7079 86.9355 51.4268 86.0162 53.2983 85.6437C55.1698 85.2712 57.1097 85.4622 58.8726 86.1926C60.6355 86.9229 62.1421 88.1598 63.2019 89.7467C64.2616 91.3335 64.8268 93.1991 64.8259 95.1073V244.518H2.68912e-07Z" fill="#08B1D5"/>
<path d="M629.985 295.076H499.588C427.683 295.076 369.19 236.564 369.19 164.672C369.19 92.7797 427.702 34.2743 499.588 34.2743C571.474 34.2743 629.985 92.7861 629.985 164.672V295.076ZM499.588 87.2307C479.17 87.4167 459.653 95.658 445.281 110.161C430.909 124.665 422.846 144.257 422.846 164.675C422.846 185.093 430.909 204.685 445.281 219.189C459.653 233.692 479.17 241.934 499.588 242.12H577.029V164.672C577.005 144.141 568.839 124.457 554.321 109.939C539.803 95.4211 520.119 87.2545 499.588 87.2307Z" fill="white"/>
<path d="M1505 295.076H1374.6C1302.7 295.076 1244.2 236.564 1244.2 164.672C1244.2 92.7797 1302.72 34.2743 1374.6 34.2743C1446.49 34.2743 1505 92.7861 1505 164.672V295.076ZM1374.6 87.2307C1354.19 87.4167 1334.67 95.658 1320.3 110.161C1305.92 124.665 1297.86 144.257 1297.86 164.675C1297.86 185.093 1305.92 204.685 1320.3 219.189C1334.67 233.692 1354.19 241.934 1374.6 242.12H1452.04V164.672C1452.02 144.141 1443.85 124.457 1429.34 109.939C1414.82 95.4211 1395.13 87.2545 1374.6 87.2307Z" fill="white"/>
<path d="M1082.91 295.128C1010.97 295.128 952.456 236.616 952.456 164.672V42.2988H1005.43V164.672C1005.43 185.221 1013.59 204.928 1028.13 219.459C1042.66 233.989 1062.36 242.152 1082.91 242.152C1103.46 242.152 1123.17 233.989 1137.7 219.459C1152.23 204.928 1160.39 185.221 1160.39 164.672V42.2988H1213.37V164.672C1213.37 236.609 1154.84 295.128 1082.91 295.128Z" fill="white"/>
<path d="M791.221 34.2743C719.316 34.2743 660.817 92.7861 660.817 164.672C660.817 236.558 719.328 295.076 791.221 295.076L844.184 242.12H791.234C775.916 242.121 760.941 237.58 748.204 229.071C735.467 220.561 725.539 208.466 719.677 194.314C713.814 180.163 712.279 164.59 715.267 149.567C718.254 134.543 725.63 120.742 736.461 109.91C747.292 99.0785 761.092 91.7017 776.115 88.7128C791.139 85.724 806.712 87.2573 820.864 93.119C835.016 98.9806 847.112 108.907 855.622 121.644C864.132 134.38 868.675 149.354 868.675 164.672V419.526H921.631V164.672C921.618 92.7732 863.119 34.2743 791.221 34.2743Z" fill="white"/>
</g>
<defs>
<clipPath id="clip0_115_218">
<rect width="1505" height="399.52" fill="white" transform="translate(0 20)"/>
</clipPath>
</defs>
</svg>
