<?xml version="1.0" encoding="UTF-8"?><svg id="a" xmlns="http://www.w3.org/2000/svg" viewBox="0 0 2002 532"><path d="M1541.89136,193.15894c0,56.74243-46.16455,102.90698-102.90698,102.90698s-102.90698-46.16455-102.90698-102.90698V30.62231h-70.36853V193.15894c0,95.54419,77.73132,173.27539,173.27551,173.27539s173.27551-77.7312,173.27551-173.27539V30.62231h-70.36853V193.15894ZM664.56885,19.95703c-95.50226,0-173.1994,77.69702-173.1994,173.2019s77.69714,173.19922,173.1994,173.19922h173.1994V193.15894c0-95.50488-77.69714-173.2019-173.1994-173.2019Zm102.86182,276.06372h-102.86182c-56.71753,0-102.86182-46.14429-102.86182-102.86182s46.14429-102.8645,102.86182-102.8645,102.86182,46.14453,102.86182,102.8645v102.86182ZM1827.80054,19.95703c-95.5022,0-173.19922,77.69702-173.19922,173.2019s77.69702,173.19922,173.19922,173.19922h173.19946V193.15894c0-95.50488-77.69702-173.2019-173.19946-173.2019Zm102.86182,276.06372h-102.86182c-56.71741,0-102.86182-46.14429-102.86182-102.86182s46.14441-102.8645,102.86182-102.8645,102.86182,46.14453,102.86182,102.8645v102.86182ZM1051.97485,19.95703c-95.5022,0-173.19922,77.69727-173.19922,173.20166s77.69702,173.19946,173.19922,173.19946l70.33771-70.33765h-70.33771c-56.71741,0-102.86176-46.14404-102.86176-102.86182s46.14435-102.86401,102.86176-102.86401,102.86194,46.14404,102.86194,102.86401v338.49976h70.33752V193.15869c0-95.50439-77.69708-173.20166-173.19946-173.20166ZM87.10364,100.7583c0-11.41284-13.79871-17.12842-21.8689-9.05835L6.62817,150.3064c-3.60364,3.60376-5.62817,8.49146-5.62817,13.58765l.00006,123.46924H87.10364V100.7583Zm13.65479-13.65479l186.60486,.00024V1.00024l-123.46912-.00024c-5.09637,0-9.98401,2.02441-13.58765,5.62817l-58.60651,58.60669c-8.07019,8.07007-2.35455,21.86865,9.05841,21.86865Zm184.80035,212.1084l-284.55701-.00024-.00006,71.15796c0,8.25439,6.69141,14.9458,14.94562,14.9458H222.42303c5.09631,0,9.98395-2.02441,13.58759-5.62817l58.60651-58.60645c8.07019-8.07007,2.35455-21.8689-9.05835-21.8689ZM370.36975,1.00195h-71.15796V285.55884c0,11.41284,13.79877,17.12866,21.86896,9.05835l58.60651-58.60645c3.60364-3.60376,5.62817-8.49121,5.62817-13.58765l-.00006-206.47559c0-8.25415-6.69135-14.94556-14.94562-14.94556Z" style="fill:#fff;"/></svg>